<svg xmlns="http://www.w3.org/2000/svg" width="22.685" height="21.424" viewBox="0 0 22.685 21.424">
  <g id="menu-svgrepo-com" transform="translate(-5.227 -5.576)">
    <path id="Path_21" data-name="Path 21" d="M76.891,83.78H95.8A1.89,1.89,0,1,0,95.8,80h-18.9a1.89,1.89,0,1,0,0,3.781Z" transform="translate(-69.774 -74.423)" fill="#262626"/>
    <path id="Path_22" data-name="Path 22" d="M76.891,153.78H95.8a1.89,1.89,0,1,0,0-3.781h-18.9a1.89,1.89,0,1,0,0,3.781Z" transform="translate(-69.774 -135.602)" fill="#262626"/>
    <path id="Path_23" data-name="Path 23" d="M76.891,223.78H95.8a1.89,1.89,0,1,0,0-3.781h-18.9a1.89,1.89,0,1,0,0,3.781Z" transform="translate(-69.774 -196.78)" fill="#262626"/>
  </g>
</svg>
