<svg xmlns="http://www.w3.org/2000/svg" width="144" height="144" viewBox="0 0 144 144">
  <g id="Group_11" data-name="Group 11" transform="translate(-722 -876)">
    <circle id="Ellipse_3" data-name="Ellipse 3" cx="72" cy="72" r="72" transform="translate(722 876)" fill="#262626" style="mix-blend-mode: darken;isolation: isolate"/>
    <g id="icons8-python" transform="translate(759.867 918.953)">
      <path id="Path_1" data-name="Path 1" d="M38.763,5a37.72,37.72,0,0,0-6.909.644C25.1,6.82,23.87,9.29,23.87,13.841V20.8h15.8v3.511H15.634c-4.627,0-8.676,2.18-9.959,7.405a29.4,29.4,0,0,0,0,16.017C6.824,52.4,9.357,55.9,13.986,55.9h6.375V46.944c0-5.206,4.715-10.349,10.117-10.349h12.7c4.429,0,8.776-3.268,8.776-7.683V13.841c0-4.281-3.088-7.483-7.4-8.2A29.868,29.868,0,0,0,38.763,5Zm-8.748,7.021a2.633,2.633,0,1,1,0,5.266,2.633,2.633,0,1,1,0-5.266Z" transform="translate(-4.563 -5)" fill="#0277bd"/>
      <path id="Path_2" data-name="Path 2" d="M28.755,64.9a37.72,37.72,0,0,0,6.909-.644c6.754-1.176,7.985-3.646,7.985-8.2V49.105h-15.8V45.595H51.886c4.627,0,8.676-2.18,9.959-7.405a29.4,29.4,0,0,0,0-16.017C60.694,17.5,58.161,14,53.532,14H47.157v8.959c0,5.206-4.715,10.349-10.117,10.349h-12.7c-4.429,0-8.776,3.268-8.776,7.683V56.062c0,4.281,3.088,7.483,7.4,8.2A29.868,29.868,0,0,0,28.755,64.9Zm8.75-7.021a2.633,2.633,0,1,1,0-5.266,2.633,2.633,0,1,1,0,5.266Z" transform="translate(3.745 1.798)" fill="#ffc107"/>
    </g>
  </g>
</svg>
